<?xml version="1.0" encoding="utf-8"?>
<!-- Generator: Adobe Illustrator 22.1.0, SVG Export Plug-In . SVG Version: 6.00 Build 0)  -->
<svg version="1.1" id="Layer_1" xmlns="http://www.w3.org/2000/svg" xmlns:xlink="http://www.w3.org/1999/xlink" x="0px" y="0px"
	 viewBox="0 0 257.1 104.9" style="enable-background:new 0 0 257.1 104.9;" xml:space="preserve">
<style type="text/css">
	.st0{enable-background:new    ;}
	.st1{fill:#F7F2F2;}
	.st2{opacity:0.3;enable-background:new    ;}
</style>
<g class="st0">
	<path class="st1" d="M0,52.5V0.9h7l27.1,40.5V0.9h6.5v51.5h-7L6.5,12v40.5H0z"/>
	<path class="st1" d="M50,27.4c0-8.6,2.3-15.3,6.9-20.1C61.5,2.4,67.4,0,74.7,0c4.8,0,9,1.1,12.9,3.4c3.8,2.3,6.7,5.4,8.7,9.5
		s3,8.7,3,13.8c0,5.2-1.1,9.9-3.2,14s-5.1,7.2-9,9.4s-8,3.2-12.5,3.2c-4.9,0-9.2-1.2-13-3.5c-3.8-2.3-6.7-5.5-8.7-9.6
		S50,31.9,50,27.4z M57,27.5c0,6.2,1.7,11.1,5,14.7s7.5,5.4,12.6,5.4c5.1,0,9.4-1.8,12.7-5.4c3.3-3.6,5-8.7,5-15.4
		c0-4.2-0.7-7.9-2.1-11c-1.4-3.1-3.5-5.6-6.2-7.3c-2.7-1.7-5.8-2.6-9.2-2.6c-4.8,0-9,1.7-12.5,5S57,19.7,57,27.5z"/>
	<path class="st1" d="M122.8,52.5l-20-51.5h7.4l13.4,37.4c1.1,3,2,5.8,2.7,8.4c0.8-2.8,1.7-5.6,2.8-8.4L143,0.9h7l-20.2,51.5H122.8z
		"/>
	<path class="st1" d="M189.9,0.9h6.8v29.8c0,5.2-0.6,9.3-1.8,12.3c-1.2,3-3.3,5.5-6.3,7.4s-7.1,2.9-12,2.9c-4.8,0-8.8-0.8-11.8-2.5
		c-3.1-1.7-5.3-4.1-6.6-7.2c-1.3-3.2-2-7.5-2-12.9V0.9h6.8v29.7c0,4.5,0.4,7.8,1.2,9.9c0.8,2.1,2.3,3.8,4.3,4.9
		c2,1.1,4.5,1.7,7.4,1.7c5,0,8.6-1.1,10.7-3.4c2.1-2.3,3.2-6.6,3.2-13.1V0.9z"/>
	<path class="st1" d="M207.9,52.5V0.9h10.3l12.2,36.5c1.1,3.4,1.9,5.9,2.5,7.6c0.6-1.9,1.5-4.6,2.7-8.3l12.3-35.9h9.2v51.5h-6.6V9.3
		l-15,43.1h-6.2L214.5,8.6v43.9H207.9z"/>
</g>
<g class="st2">
	<path class="st1" d="M6.5,52.5V93l27.1-40.5h7V104h-6.5V63.5L7,104H0V52.5H6.5z"/>
	<path class="st1" d="M52.9,64.7c2-4.1,4.9-7.3,8.7-9.6c3.8-2.3,8.2-3.5,13-3.5c4.5,0,8.6,1.1,12.5,3.2s6.9,5.2,9,9.4
		s3.2,8.8,3.2,14c0,5.2-1,9.8-3,13.8s-4.9,7.2-8.7,9.5c-3.8,2.3-8.1,3.4-12.9,3.4c-7.3,0-13.2-2.4-17.8-7.3
		C52.3,92.8,50,86.1,50,77.6C50,73,51,68.7,52.9,64.7z M62.2,94.1c3.5,3.3,7.6,5,12.5,5c3.4,0,6.5-0.9,9.2-2.6
		c2.7-1.7,4.8-4.1,6.2-7.3c1.4-3.1,2.1-6.8,2.1-11c0-6.6-1.7-11.8-5-15.4c-3.3-3.6-7.5-5.4-12.7-5.4c-5,0-9.2,1.8-12.6,5.4
		s-5,8.5-5,14.7C57,85.2,58.8,90.7,62.2,94.1z"/>
	<path class="st1" d="M129.8,52.5L150,104h-7l-13.9-37.4c-1.1-2.8-2-5.6-2.8-8.4c-0.7,2.6-1.6,5.4-2.7,8.4L110.2,104h-7.4l20-51.5
		H129.8z"/>
	<path class="st1" d="M189.9,74.2c0-6.5-1.1-10.8-3.2-13.1c-2.1-2.3-5.7-3.4-10.7-3.4c-2.9,0-5.4,0.6-7.4,1.7
		c-2,1.1-3.5,2.8-4.3,4.9c-0.8,2.1-1.2,5.4-1.2,9.9V104h-6.8V74.2c0-5.5,0.7-9.8,2-12.9c1.3-3.2,3.5-5.6,6.6-7.2
		c3.1-1.7,7-2.5,11.8-2.5c5,0,9,1,12,2.9s5.2,4.4,6.3,7.4c1.2,3,1.8,7.2,1.8,12.3V104h-6.8V74.2z"/>
	<path class="st1" d="M214.5,52.5v43.9l14.9-43.9h6.2l15,43.1V52.5h6.6V104h-9.2l-12.3-35.9c-1.2-3.6-2.2-6.4-2.7-8.3
		c-0.5,1.7-1.3,4.2-2.5,7.6L218.1,104h-10.3V52.5H214.5z"/>
</g>
</svg>
