<svg id="Layer_1" data-name="Layer 1" xmlns="http://www.w3.org/2000/svg" viewBox="0 0 257.06 104.91"><defs><style>.cls-1,.cls-3{isolation:isolate;}.cls-2{fill:#f7f2f2;}.cls-3{opacity:0.3;}</style></defs><title>novum</title><g class="cls-1"><path class="cls-2" d="M0,52.45V.91H7L34.07,41.38V.91h6.54V52.45h-7L6.54,12v40.5Z"/><path class="cls-2" d="M50,27.35q0-12.82,6.89-20.09T74.67,0A24.71,24.71,0,0,1,87.54,3.41a22.28,22.28,0,0,1,8.74,9.51,31,31,0,0,1,3,13.83,30.35,30.35,0,0,1-3.16,14,21.57,21.57,0,0,1-9,9.37,25.6,25.6,0,0,1-12.51,3.18,24.41,24.41,0,0,1-13-3.51A22.63,22.63,0,0,1,53,40.22,29.08,29.08,0,0,1,50,27.35Zm7,.11q0,9.32,5,14.67A16.47,16.47,0,0,0,74.6,47.5a16.48,16.48,0,0,0,12.68-5.42q5-5.41,5-15.36a26.38,26.38,0,0,0-2.13-11A16.31,16.31,0,0,0,83.9,8.46a16.82,16.82,0,0,0-9.19-2.59,17.44,17.44,0,0,0-12.47,5Q57,15.82,57,27.46Z"/><path class="cls-2" d="M122.8,52.45,102.83.91h7.38l13.4,37.45q1.62,4.5,2.71,8.43c.79-2.81,1.72-5.62,2.77-8.43L143,.91h7L129.8,52.45Z"/><path class="cls-2" d="M189.91.91h6.82V30.69q0,7.77-1.75,12.34a15.09,15.09,0,0,1-6.35,7.44q-4.59,2.87-12,2.86-7.25,0-11.85-2.49a14.27,14.27,0,0,1-6.57-7.23q-2-4.72-2-12.92V.91H163V30.66q0,6.71,1.25,9.89a9.48,9.48,0,0,0,4.29,4.91A14.82,14.82,0,0,0,176,47.18q7.53,0,10.72-3.41c2.14-2.27,3.2-6.65,3.2-13.11Z"/><path class="cls-2" d="M207.88,52.45V.91h10.26l12.2,36.5c1.13,3.39,1.95,5.94,2.46,7.63.59-1.88,1.5-4.63,2.75-8.27L247.89.91h9.17V52.45h-6.57V9.32l-15,43.13h-6.15L214.45,8.58V52.45Z"/></g><g class="cls-3"><path class="cls-2" d="M6.54,52.45V93l27.07-40.5h7V104H34.07V63.53L7,104H0V52.45Z"/><path class="cls-2" d="M53,64.69a22.52,22.52,0,0,1,8.68-9.6,24.42,24.42,0,0,1,13-3.52,25.5,25.5,0,0,1,12.51,3.19,21.6,21.6,0,0,1,9,9.36,30.4,30.4,0,0,1,3.16,14,31,31,0,0,1-3,13.84,22.39,22.39,0,0,1-8.74,9.51,24.71,24.71,0,0,1-12.87,3.41q-10.89,0-17.79-7.26T50,77.55A29,29,0,0,1,53,64.69Zm9.29,29.37a17.44,17.44,0,0,0,12.47,5,16.91,16.91,0,0,0,9.19-2.59,16.34,16.34,0,0,0,6.22-7.28,26.36,26.36,0,0,0,2.13-11q0-10-5-15.37A16.47,16.47,0,0,0,74.6,57.41,16.49,16.49,0,0,0,62,62.77q-5,5.37-5,14.68Q57,89.09,62.24,94.06Z"/><path class="cls-2" d="M129.8,52.45,150,104h-7L129.09,66.55c-1.05-2.81-2-5.62-2.77-8.44q-1.09,3.95-2.71,8.44L110.21,104h-7.38l20-51.54Z"/><path class="cls-2" d="M189.91,74.25q0-9.7-3.2-13.11T176,57.73a14.82,14.82,0,0,0-7.43,1.72,9.46,9.46,0,0,0-4.29,4.9Q163,67.53,163,74.25V104H156.2V74.21q0-8.19,2-12.92a14.22,14.22,0,0,1,6.57-7.22q4.6-2.49,11.85-2.5,7.46,0,12,2.87A15.09,15.09,0,0,1,195,61.88c1.17,3,1.75,7.16,1.75,12.33V104h-6.82Z"/><path class="cls-2" d="M214.45,52.45V96.33l14.91-43.88h6.15l15,43.14V52.45h6.57V104h-9.17L235.55,68.13c-1.25-3.63-2.16-6.38-2.75-8.26q-.77,2.54-2.46,7.63L218.14,104H207.88V52.45Z"/></g></svg>